<?xml version="1.0" standalone="no"?>
<!DOCTYPE svg PUBLIC "-//W3C//DTD SVG 20010904//EN"
 "http://www.w3.org/TR/2001/REC-SVG-20010904/DTD/svg10.dtd">
<svg version="1.0" xmlns="http://www.w3.org/2000/svg"
 width="1900.000000pt" height="1900.000000pt" viewBox="0 0 1900.000000 1900.000000"
 preserveAspectRatio="xMidYMid meet">
<metadata>
Created by potrace 1.14, written by Peter Selinger 2001-2017
</metadata>
<g transform="translate(0.000000,1900.000000) scale(0.100000,-0.100000)"
fill="#000000" stroke="none">
<path d="M8240 18867 c-3 -3 -90 -8 -193 -11 -103 -4 -198 -9 -210 -11 -12 -2
-73 -6 -135 -10 -63 -4 -122 -8 -132 -10 -10 -2 -51 -6 -92 -10 -40 -3 -84 -8
-98 -10 -14 -2 -59 -7 -100 -10 -41 -3 -100 -10 -130 -15 -30 -5 -77 -11 -105
-14 -78 -9 -132 -16 -230 -32 -49 -8 -110 -17 -135 -20 -25 -3 -115 -19 -200
-36 -85 -16 -168 -32 -185 -34 -16 -3 -59 -11 -95 -19 -36 -8 -81 -17 -100
-20 -19 -3 -71 -15 -115 -26 -44 -12 -88 -23 -97 -25 -10 -2 -26 -6 -35 -8
-10 -2 -74 -18 -143 -36 -69 -18 -133 -34 -142 -36 -10 -2 -26 -6 -35 -8 -95
-22 -519 -154 -708 -221 -71 -26 -141 -50 -155 -55 -96 -31 -487 -191 -643
-264 -43 -20 -80 -36 -83 -36 -8 0 -448 -220 -453 -227 -3 -5 -26 -18 -51 -30
-25 -13 -72 -39 -105 -58 -33 -20 -75 -43 -92 -52 -18 -9 -33 -20 -33 -25 0
-4 -4 -8 -10 -8 -5 0 -58 -29 -116 -65 -59 -36 -108 -65 -111 -65 -2 0 -19
-11 -37 -25 -18 -14 -36 -25 -39 -25 -14 0 -412 -261 -427 -280 -3 -3 -23 -19
-45 -35 -34 -25 -135 -106 -224 -180 -76 -62 -165 -143 -271 -246 -94 -91
-294 -321 -405 -464 -16 -21 -38 -47 -47 -57 -10 -10 -18 -22 -18 -27 0 -5 -3
-11 -8 -13 -8 -3 -153 -196 -209 -278 -36 -51 -176 -277 -186 -300 -4 -8 -23
-42 -43 -75 -48 -82 -274 -545 -274 -562 0 -4 -7 -21 -16 -38 -45 -86 -252
-642 -268 -720 -1 -5 -14 -55 -30 -110 -36 -129 -35 -124 -36 -130 -1 -3 -6
-19 -11 -37 -6 -18 -12 -40 -14 -48 -2 -8 -15 -62 -28 -120 -40 -162 -69 -293
-72 -320 -2 -22 -14 -91 -30 -169 -2 -12 -7 -42 -9 -65 -3 -22 -7 -50 -10 -61
-2 -11 -7 -49 -11 -85 -4 -36 -8 -67 -10 -70 -2 -3 -6 -39 -10 -80 -4 -41 -9
-84 -11 -95 -3 -11 -7 -51 -9 -90 -3 -38 -7 -81 -10 -93 -26 -132 -26 -1128 0
-1283 2 -13 7 -55 10 -94 3 -38 8 -88 10 -110 17 -148 26 -213 29 -230 2 -11
7 -47 11 -80 7 -60 10 -79 20 -125 3 -14 8 -43 10 -65 3 -22 12 -74 21 -115 9
-41 18 -86 20 -100 9 -50 124 -507 145 -575 108 -353 227 -670 341 -915 117
-250 213 -432 315 -599 34 -57 63 -105 63 -106 0 -5 198 -302 214 -322 8 -10
43 -56 77 -103 35 -47 65 -87 68 -90 4 -3 19 -23 36 -45 16 -22 39 -51 51 -65
12 -14 54 -63 94 -110 214 -251 454 -478 700 -663 41 -31 80 -60 85 -64 6 -5
38 -30 72 -56 34 -26 71 -60 82 -76 l21 -29 0 -3069 c0 -2142 4 -3082 11
-3113 6 -25 12 -49 13 -55 6 -33 31 -73 54 -87 25 -15 409 -16 4572 -16 3747
0 4549 2 4570 13 14 7 36 33 50 57 l25 43 5 1090 c3 600 6 1091 8 1091 1 1 14
9 28 18 14 10 44 19 66 22 23 3 559 7 1192 8 633 2 1167 6 1186 10 19 3 46 8
60 11 14 2 39 7 55 9 17 3 62 10 100 16 39 6 93 18 121 26 28 8 60 16 70 18
51 10 280 94 364 134 111 52 268 145 360 213 36 27 85 63 110 81 82 60 258
239 331 337 40 53 85 113 101 133 27 36 85 133 111 188 6 14 14 27 18 30 5 5
18 31 87 180 42 92 97 257 126 384 34 140 34 144 55 316 6 47 14 105 17 130 4
25 10 558 13 1185 5 881 9 1145 18 1162 16 26 56 40 148 48 38 4 73 8 76 11 3
2 238 4 522 4 484 1 521 2 589 21 174 48 291 100 402 181 39 28 73 54 76 58 3
3 22 19 43 35 21 16 64 63 95 104 30 42 73 99 94 127 21 28 38 56 38 62 0 5 3
12 8 14 25 11 100 143 140 248 101 259 100 461 -4 745 -44 119 -87 230 -94
240 -7 10 -65 158 -122 310 -16 44 -34 89 -38 100 -5 11 -23 58 -40 105 -17
47 -35 94 -40 105 -5 11 -14 37 -20 58 -7 22 -18 51 -26 65 -8 15 -14 33 -14
40 0 8 -6 26 -14 40 -8 15 -35 88 -60 162 -25 74 -61 180 -81 235 -47 129
-292 864 -340 1020 -20 66 -43 138 -52 160 -8 22 -23 65 -33 95 -10 30 -32 93
-49 140 -32 85 -85 236 -135 385 -15 44 -30 87 -33 95 -3 8 -7 20 -9 25 -1 6
-21 57 -44 115 -23 58 -53 137 -65 175 -34 103 -70 204 -125 350 -27 72 -56
153 -65 180 -9 28 -22 64 -29 80 -7 17 -28 71 -45 120 -18 50 -51 137 -73 195
-22 58 -49 130 -60 160 -11 30 -26 71 -34 90 -7 19 -29 80 -49 135 -20 55 -42
114 -49 130 -7 17 -39 98 -71 180 -32 83 -71 178 -87 212 -15 34 -28 64 -28
67 0 4 -18 46 -41 94 -22 48 -56 137 -74 197 -68 221 -112 345 -172 485 -8 19
-19 44 -23 55 -65 160 -305 583 -402 710 -5 6 -54 71 -110 145 -56 74 -109
142 -118 150 -9 8 -19 20 -21 26 -10 28 -273 317 -396 434 -174 167 -473 419
-628 529 -27 19 -52 38 -55 41 -36 43 -668 450 -698 450 -6 0 -12 4 -14 8 -3
9 -21 20 -98 59 -19 10 -37 20 -40 23 -15 15 -399 208 -505 255 -22 9 -67 30
-100 46 -294 140 -821 335 -1230 454 -163 48 -390 110 -435 119 -14 3 -107 25
-207 50 -101 25 -199 47 -219 50 -20 4 -66 13 -102 21 -37 8 -83 16 -103 19
-20 3 -42 8 -50 10 -8 3 -30 7 -49 10 -19 3 -71 12 -115 20 -44 9 -97 18 -119
21 -21 2 -46 6 -55 9 -9 3 -38 7 -66 11 -27 3 -81 10 -120 16 -88 12 -304 38
-370 44 -27 3 -61 7 -75 9 -14 3 -56 8 -95 11 -38 3 -86 8 -106 10 -20 3 -79
7 -130 10 -52 3 -112 7 -134 10 -117 14 -1222 34 -1235 22z m880 -1591 c25 -2
77 -8 115 -11 68 -6 169 -18 248 -30 20 -3 54 -7 75 -10 20 -3 84 -14 142 -25
103 -19 126 -23 185 -35 207 -42 679 -186 855 -262 19 -8 44 -19 55 -23 51
-20 244 -104 278 -121 20 -11 54 -27 75 -38 199 -100 433 -235 612 -354 100
-67 375 -270 432 -319 14 -13 43 -37 65 -55 21 -17 52 -44 69 -60 17 -15 53
-48 80 -71 124 -111 342 -332 439 -446 28 -33 55 -64 60 -70 31 -33 152 -186
227 -286 428 -579 735 -1227 911 -1925 33 -130 82 -363 91 -431 3 -16 7 -51
11 -79 3 -27 8 -57 10 -65 3 -8 7 -37 10 -65 3 -27 7 -66 10 -85 22 -158 29
-320 29 -610 1 -253 -7 -467 -18 -525 -2 -11 -7 -54 -11 -95 -3 -41 -8 -86
-10 -100 -2 -14 -7 -45 -10 -70 -8 -59 -14 -99 -20 -130 -3 -14 -7 -41 -10
-60 -3 -19 -8 -42 -10 -50 -2 -8 -7 -31 -10 -50 -44 -263 -218 -834 -325
-1065 -5 -11 -30 -66 -55 -122 -24 -57 -54 -120 -65 -140 -11 -21 -20 -41 -20
-44 0 -9 -196 -364 -233 -424 -200 -314 -331 -492 -528 -720 -206 -237 -386
-416 -624 -620 -177 -151 -547 -416 -717 -514 -18 -10 -62 -35 -98 -56 -36
-21 -112 -62 -170 -92 -58 -31 -116 -61 -130 -69 -96 -52 -379 -171 -561 -238
-326 -117 -752 -225 -1055 -266 -44 -6 -89 -12 -100 -14 -16 -3 -82 -11 -189
-22 -199 -20 -741 -26 -920 -10 -49 5 -106 10 -125 11 -99 8 -181 17 -230 26
-30 5 -71 11 -90 13 -20 3 -47 7 -60 10 -14 3 -42 8 -64 11 -221 31 -666 152
-961 262 -119 44 -135 51 -227 92 -26 11 -50 21 -54 21 -24 0 -435 212 -609
314 -180 106 -546 362 -667 468 -14 13 -37 32 -50 42 -115 94 -272 241 -412
385 -117 120 -119 122 -196 211 -36 41 -69 80 -75 86 -5 6 -23 28 -40 49 -16
21 -42 52 -56 69 -14 17 -45 58 -70 91 -24 33 -46 62 -49 65 -3 3 -21 28 -39
55 -19 28 -38 52 -41 55 -14 12 -195 298 -260 411 -105 182 -257 494 -330 679
-23 58 -45 114 -51 125 -23 48 -133 398 -169 537 -36 142 -71 294 -85 378 -4
19 -11 60 -16 90 -6 30 -14 86 -20 125 -5 38 -11 76 -13 85 -3 8 -8 53 -11
100 -4 47 -8 87 -10 90 -10 16 -20 303 -20 540 1 332 11 493 50 775 5 32 34
208 40 235 2 14 12 61 21 105 17 87 77 329 101 410 49 163 136 418 168 490 7
17 34 82 60 145 112 269 317 642 503 915 247 364 464 614 836 970 69 66 280
242 397 330 367 277 757 503 1169 677 85 36 171 71 190 78 19 6 44 16 55 20
134 55 555 180 685 204 14 2 48 10 75 16 28 6 61 14 75 16 14 2 34 6 46 9 12
3 39 7 60 10 21 4 50 8 64 11 36 7 73 12 200 29 135 18 183 23 305 30 49 3 91
8 93 10 5 5 658 -3 712 -9z"/>
<path d="M10746 15083 c-2 -2 -39 -6 -82 -8 -109 -7 -167 -12 -201 -19 -15 -3
-50 -8 -77 -11 -50 -6 -131 -23 -238 -49 -32 -7 -58 -11 -58 -8 0 2 -6 0 -12
-6 -7 -5 -33 -15 -58 -22 -53 -14 -211 -76 -296 -115 -225 -106 -506 -315
-645 -482 -102 -122 -216 -278 -265 -363 -87 -149 -111 -155 -184 -45 -55 82
-179 245 -244 320 -34 38 -65 76 -71 83 -10 12 -192 171 -231 202 -11 8 -40
31 -64 50 -59 47 -155 112 -205 140 -115 65 -211 112 -291 145 -49 20 -98 40
-109 46 -11 5 -30 11 -43 14 -12 2 -26 6 -30 9 -10 6 -195 56 -227 61 -11 2
-31 7 -45 10 -14 3 -47 8 -74 11 -27 3 -52 7 -56 9 -39 24 -620 25 -772 1 -18
-3 -55 -8 -83 -11 -87 -9 -117 -15 -273 -55 -135 -35 -295 -90 -348 -118 -11
-6 -46 -23 -79 -38 -237 -108 -520 -336 -671 -539 -32 -44 -63 -84 -67 -90
-63 -79 -216 -390 -231 -470 -1 -5 -4 -14 -8 -20 -3 -5 -17 -59 -31 -120 -41
-175 -47 -228 -51 -444 -1 -91 1 -185 5 -210 3 -25 9 -68 13 -96 10 -83 50
-244 92 -370 73 -222 269 -623 404 -830 22 -33 45 -71 52 -85 7 -14 15 -27 18
-30 4 -3 24 -32 46 -65 35 -54 329 -450 357 -481 7 -7 17 -19 22 -26 32 -42
185 -221 285 -333 210 -237 476 -501 764 -760 49 -44 110 -99 135 -121 101
-91 414 -366 546 -479 77 -66 145 -124 152 -130 76 -66 121 -105 193 -165 47
-40 96 -82 110 -93 14 -12 81 -68 150 -126 69 -57 127 -107 130 -110 3 -4 14
-14 26 -22 11 -8 43 -33 70 -56 41 -35 93 -78 219 -182 11 -9 43 -34 70 -56
28 -22 52 -42 55 -45 3 -3 27 -24 55 -45 55 -45 92 -75 109 -90 25 -23 193
-153 217 -169 44 -28 82 -35 117 -21 24 11 204 141 292 211 8 7 103 81 210
164 107 83 209 161 225 174 17 13 75 59 130 101 55 43 116 91 135 106 19 16
143 115 275 220 132 105 247 198 255 205 8 8 44 38 80 67 80 65 491 408 506
422 6 5 40 35 75 65 523 452 905 860 1295 1385 49 66 92 122 97 123 4 2 7 10
7 17 0 7 3 15 8 17 15 6 212 302 212 318 0 6 4 10 8 10 4 0 13 12 20 28 6 15
24 47 40 72 55 87 176 320 235 450 13 30 34 76 46 102 11 26 21 51 21 54 0 3
6 20 14 37 39 87 124 374 140 472 7 40 17 113 22 150 11 77 9 347 -2 431 -19
137 -61 290 -109 399 -93 211 -157 314 -326 520 -109 133 -217 233 -394 363
-38 28 -74 55 -80 60 -5 4 -28 19 -50 32 -22 13 -42 27 -45 30 -7 9 -357 180
-377 185 -10 3 -56 18 -102 35 -93 34 -254 74 -341 86 -30 3 -68 9 -85 11 -39
6 -424 11 -429 6z"/>
</g>
</svg>
