<?xml version="1.0" standalone="no"?>
<!DOCTYPE svg PUBLIC "-//W3C//DTD SVG 20010904//EN"
 "http://www.w3.org/TR/2001/REC-SVG-20010904/DTD/svg10.dtd">
<svg version="1.0" xmlns="http://www.w3.org/2000/svg"
 width="700.000000pt" height="700.000000pt" viewBox="0 0 700.000000 700.000000"
 preserveAspectRatio="xMidYMid meet">
<metadata>
Created by potrace 1.14, written by Peter Selinger 2001-2017
</metadata>
<g transform="translate(0.000000,700.000000) scale(0.100000,-0.100000)"
fill="#000000" stroke="none">
<path d="M2950 6937 c-3 -3 -52 -7 -110 -11 -58 -3 -116 -8 -130 -10 -14 -3
-50 -7 -80 -10 -47 -6 -274 -43 -305 -50 -5 -2 -28 -6 -50 -11 -79 -16 -310
-76 -365 -95 -182 -63 -241 -85 -275 -99 -22 -10 -60 -26 -85 -36 -168 -70
-500 -261 -647 -373 -209 -159 -410 -403 -538 -652 -126 -247 -222 -540 -260
-795 -38 -250 -43 -612 -11 -825 63 -435 200 -793 425 -1115 103 -148 203
-255 344 -371 51 -41 102 -83 114 -93 l22 -18 -1 -1130 c0 -621 3 -1145 7
-1166 4 -21 14 -38 24 -41 9 -3 768 -5 1688 -5 1506 1 1673 2 1685 16 10 13
13 105 14 420 1 290 5 408 13 416 8 8 135 12 454 13 457 1 507 5 637 45 275
86 489 322 554 610 26 113 29 176 30 601 1 268 5 421 11 427 16 16 92 22 305
24 l195 2 75 36 c88 43 122 75 190 176 69 104 92 188 76 280 -8 45 -12 55
-126 353 -39 102 -114 313 -166 470 -52 157 -108 321 -124 365 -16 44 -59 163
-95 265 -101 280 -224 609 -251 668 -13 29 -40 101 -60 160 -92 273 -235 495
-450 702 -294 283 -702 517 -1149 660 -88 28 -322 91 -386 104 -41 8 -133 25
-168 31 -19 3 -37 7 -40 9 -3 2 -37 7 -75 11 -38 3 -72 8 -75 9 -3 2 -40 7
-81 11 -41 3 -88 9 -105 12 -38 6 -649 15 -655 10z m780 -761 c395 -60 686
-178 990 -404 98 -73 300 -275 379 -380 382 -505 508 -1150 344 -1752 -95
-347 -270 -648 -528 -905 -604 -603 -1519 -760 -2290 -391 -368 176 -664 447
-872 796 -142 240 -237 527 -272 825 -9 76 -7 382 2 435 3 14 8 45 12 70 14
92 17 107 35 180 80 315 233 610 440 845 79 90 201 205 275 260 22 16 42 33
45 36 3 4 47 34 98 68 257 167 556 276 877 317 28 3 51 7 53 9 5 5 370 -3 412
-9z"/>
<path d="M2570 5364 c-232 -35 -399 -119 -522 -261 -121 -141 -184 -357 -156
-541 44 -301 303 -691 713 -1072 230 -214 866 -750 890 -750 8 0 104 67 120
84 6 6 37 31 70 56 33 24 66 50 75 56 8 7 86 69 172 138 178 142 165 131 313
257 294 249 487 463 650 719 189 299 257 559 199 760 -75 259 -345 494 -632
550 -61 12 -290 9 -357 -5 -228 -47 -380 -137 -508 -300 -33 -43 -87 -127 -87
-137 0 -20 -17 -5 -45 39 -113 180 -296 318 -500 378 -75 23 -113 27 -230 30
-77 1 -151 1 -165 -1z"/>
</g>
</svg>
